<?xml version="1.0" standalone="no"?>
<!DOCTYPE svg PUBLIC "-//W3C//DTD SVG 20010904//EN"
 "http://www.w3.org/TR/2001/REC-SVG-20010904/DTD/svg10.dtd">
<svg version="1.0" xmlns="http://www.w3.org/2000/svg"
 width="100.000000pt" height="100.000000pt" viewBox="0 0 100.000000 100.000000"
 preserveAspectRatio="xMidYMid meet">
<metadata>
Created by potrace 1.14, written by Peter Selinger 2001-2017
</metadata>
<g transform="translate(0.000000,100.000000) scale(0.100000,-0.100000)"
fill="#000000" stroke="none">
<path d="M455 993 c-52 -15 -87 -56 -99 -118 -3 -17 -8 -42 -12 -57 -12 -54
81 -189 139 -200 55 -11 110 32 153 116 27 53 29 70 16 136 -11 57 -25 83 -57
104 -27 18 -106 29 -140 19z m128 -129 c18 -4 29 -14 33 -30 3 -13 10 -24 16
-24 10 0 1 -41 -11 -50 -4 -3 -13 -20 -21 -39 -16 -39 -62 -71 -104 -71 -32 0
-79 43 -110 104 -20 37 -16 58 17 103 9 13 125 17 180 7z"/>
<path d="M313 613 c-30 -6 -78 -55 -91 -93 l-11 -30 290 0 c317 0 309 -2 273
58 -24 41 -57 61 -112 68 -48 6 -50 5 -70 -28 -12 -19 -30 -43 -42 -53 -19
-18 -20 -18 -22 1 0 10 0 29 1 42 1 18 -3 22 -24 22 -21 0 -25 -4 -24 -22 1
-13 1 -32 1 -42 -2 -19 -3 -19 -22 -1 -12 10 -30 34 -41 52 -21 34 -41 39
-106 26z"/>
<path d="M120 465 c-10 -12 -11 -27 -2 -68 6 -29 23 -108 37 -177 34 -166 36
-170 80 -170 19 0 35 -4 35 -8 0 -5 -20 -8 -44 -7 -30 2 -47 -2 -50 -11 -3 -7
-2 -16 3 -18 17 -11 650 -5 657 5 8 14 -15 29 -33 22 -7 -3 -13 0 -13 6 0 6 7
11 15 11 8 0 15 1 15 3 0 1 16 79 36 172 49 226 48 223 34 240 -19 23 -751 22
-770 0z m398 -208 c2 -10 -3 -17 -12 -17 -10 0 -16 9 -16 21 0 24 23 21 28 -4z
m-218 -217 c0 -5 -4 -10 -10 -10 -5 0 -10 5 -10 10 0 6 5 10 10 10 6 0 10 -4
10 -10z m54 1 c-9 -9 -34 -9 -40 0 -3 5 6 8 20 7 14 -1 23 -4 20 -7z m76 -2
c0 -4 -9 -7 -19 -6 -11 0 -18 4 -16 7 6 9 35 8 35 -1z m45 2 c-9 -8 -36 -10
-30 -2 2 4 11 8 20 8 8 0 13 -3 10 -6z m39 1 c3 -5 -1 -9 -9 -9 -8 0 -12 4 -9
9 3 4 7 8 9 8 2 0 6 -4 9 -8z m31 -2 c3 -5 1 -10 -4 -10 -6 0 -11 5 -11 10 0
6 2 10 4 10 3 0 8 -4 11 -10z m159 2 c3 -5 -1 -9 -9 -9 -8 0 -12 4 -9 9 3 4 7
8 9 8 2 0 6 -4 9 -8z m70 0 c3 -5 -1 -9 -9 -9 -8 0 -12 4 -9 9 3 4 7 8 9 8 2
0 6 -4 9 -8z"/>
</g>
</svg>
